<mxfile host="app.diagrams.net" modified="2020-09-13T13:43:35.642Z" agent="5.0 (X11; Linux x86_64) AppleWebKit/537.36 (KHTML, like Gecko) Chrome/85.0.4183.102 Safari/537.36" etag="7SHhuVJcH6nROq_fj4pf" version="13.6.10" type="github">
  <diagram id="RzrgQ_Lk-VAbw7CzdxD4" name="Page-1">
    <mxGraphModel dx="1422" dy="774" grid="0" gridSize="10" guides="1" tooltips="1" connect="1" arrows="1" fold="1" page="1" pageScale="1" pageWidth="850" pageHeight="1100" background="#FFFFFF" math="0" shadow="0">
      <root>
        <mxCell id="0" />
        <mxCell id="1" parent="0" />
        <mxCell id="Ikz9CZv2nFiKoMNQ1v35-1" value="" style="verticalLabelPosition=bottom;verticalAlign=top;html=1;shape=mxgraph.basic.diag_round_rect;dx=6;gradientDirection=south;gradientColor=#B266FF;strokeWidth=1;strokeColor=none;" vertex="1" parent="1">
          <mxGeometry y="71" width="849" height="210" as="geometry" />
        </mxCell>
        <mxCell id="Ikz9CZv2nFiKoMNQ1v35-4" value="&lt;h1&gt;&lt;span style=&quot;font-weight: normal&quot;&gt;Logo&lt;/span&gt;&lt;/h1&gt;" style="text;html=1;align=center;verticalAlign=middle;resizable=0;points=[];autosize=1;" vertex="1" parent="1">
          <mxGeometry x="41" y="15" width="63" height="50" as="geometry" />
        </mxCell>
        <mxCell id="Ikz9CZv2nFiKoMNQ1v35-5" value="&lt;h3&gt;&lt;span style=&quot;font-weight: normal&quot;&gt;About Us&lt;/span&gt;&lt;/h3&gt;" style="text;html=1;align=center;verticalAlign=middle;resizable=0;points=[];autosize=1;" vertex="1" parent="1">
          <mxGeometry x="733" y="17" width="68" height="46" as="geometry" />
        </mxCell>
        <mxCell id="Ikz9CZv2nFiKoMNQ1v35-6" value="&lt;h3&gt;&lt;span style=&quot;font-weight: normal&quot;&gt;Contact&lt;/span&gt;&lt;/h3&gt;" style="text;html=1;align=center;verticalAlign=middle;resizable=0;points=[];autosize=1;" vertex="1" parent="1">
          <mxGeometry x="654" y="17" width="58" height="46" as="geometry" />
        </mxCell>
        <mxCell id="Ikz9CZv2nFiKoMNQ1v35-7" value="&lt;h3&gt;&lt;span style=&quot;font-weight: normal&quot;&gt;Courses&lt;/span&gt;&lt;/h3&gt;" style="text;html=1;align=center;verticalAlign=middle;resizable=0;points=[];autosize=1;" vertex="1" parent="1">
          <mxGeometry x="571" y="17" width="62" height="46" as="geometry" />
        </mxCell>
        <mxCell id="Ikz9CZv2nFiKoMNQ1v35-8" value="&lt;h1&gt;&lt;b&gt;&lt;font style=&quot;font-size: 41px&quot;&gt;Company&lt;/font&gt;&lt;/b&gt;&lt;/h1&gt;" style="text;html=1;align=center;verticalAlign=middle;resizable=0;points=[];autosize=1;fontColor=#808080;" vertex="1" parent="1">
          <mxGeometry x="604" y="114" width="197" height="56" as="geometry" />
        </mxCell>
      </root>
    </mxGraphModel>
  </diagram>
</mxfile>
